<?xml version="1.0" standalone="no"?>
<!DOCTYPE svg PUBLIC "-//W3C//DTD SVG 20010904//EN"
 "http://www.w3.org/TR/2001/REC-SVG-20010904/DTD/svg10.dtd">
<svg version="1.0" xmlns="http://www.w3.org/2000/svg"
 width="700.000000pt" height="700.000000pt" viewBox="0 0 700.000000 700.000000"
 preserveAspectRatio="xMidYMid meet">
<metadata>
Created by potrace 1.14, written by Peter Selinger 2001-2017
</metadata>
<g transform="translate(0.000000,700.000000) scale(0.100000,-0.100000)"
fill="#000000" stroke="none">
<path d="M162 5595 c-62 -19 -106 -57 -136 -117 l-26 -52 0 -1921 0 -1921 25
-51 c30 -59 78 -100 139 -118 33 -10 712 -13 3316 -15 1801 -1 3291 -1 3311
-1 75 1 153 57 190 136 18 39 19 111 19 1965 l0 1925 -24 50 c-28 60 -64 92
-128 117 -46 17 -177 18 -3346 17 -2721 0 -3304 -3 -3340 -14z"/>
</g>
</svg>
